<svg xmlns="http://www.w3.org/2000/svg" viewBox="0 0 62.61 31"><defs><style>.cls-1{fill:#fff;}</style></defs><title>Asset 2</title><g id="Layer_2" data-name="Layer 2"><g id="Layer_1-2" data-name="Layer 1"><path class="cls-1" d="M58.81,10H56.1l-.22,0-.16,0s0,0,0-.07l0-.09c0-.22.09-.33.13-.32s0-.11,0-.17V9.06a2.06,2.06,0,0,1,.1-.53A1.62,1.62,0,0,1,56.2,8a1.19,1.19,0,0,1,.45-.35,2.57,2.57,0,0,1,1.29-.13,6,6,0,0,1,.72.11l.23,0,.27.07.5.15,0,0v0l0-.07c0-.19.06-.2.06-.13s0,.09,0,.15l0,.09s0,.07,0,.08-.18,0-.05,0l.07,0s0,0,0,0V8l0-.08,0-.15.06-.32.06-.34.07-.3c.08-.37.19-.81.34-1.38v.14l.27-1.16.27-1.1c0-.12,0-.24.08-.35l0-.17,0-.08s0-.07,0-.07l-.64-.22-.16-.06-.14,0-.24-.07-.47-.12a12,12,0,0,0-2-.31,11.4,11.4,0,0,0-2.56.09l.3,0a13.18,13.18,0,0,0-1.41.25c-.22.11-.19.11,0,.07l.32-.08c.13,0,.28-.08.43-.1a4.73,4.73,0,0,1,.77-.12c.17,0,.22,0,0,.06a5.56,5.56,0,0,0-1.4.22,6.61,6.61,0,0,0-1.91.87,6.33,6.33,0,0,0-.84.67l-.19.18-.17.19-.3.35c-.37.47-.6.87-.73,1a2.54,2.54,0,0,0-.2.48s0,0,0,0,.07-.08.06,0-.07.18-.18.49l-.16.32c0,.11,0,.22,0,.33-.11.42-.18.73-.24.94s-.1.33-.13.34l.06-.4a3.63,3.63,0,0,1,.06-.41,7.87,7.87,0,0,0-.23,2v.9c0,.18,0,.33,0,.43l0-1.11c0,1.72,0,3.63,0,5.53s0,3.77.07,5.43l0-.25,0,.82v.17a.61.61,0,0,1,0,.14,1.09,1.09,0,0,1,0,.26,3,3,0,0,1-.22.79,1.86,1.86,0,0,1-.19.33,1.69,1.69,0,0,1-.27.36,2.46,2.46,0,0,1-1.18.71L47,24a2.66,2.66,0,0,1-.87.19,3,3,0,0,1-1-.07c.33,0,0,0-.22-.14a1.49,1.49,0,0,1-.27-.14s0,0,.19,0a2.36,2.36,0,0,1-.64-.34,2.32,2.32,0,0,1-.35-.32L43.64,23l-.11-.15-.09-.11-.1-.16a3.51,3.51,0,0,1-.33-.76c0-.14,0-.28,0-.41a1.62,1.62,0,0,1,0-.19l0-.17c0-.11,0-.22,0-.35s0-.63,0-1.32c.06,1.14.11-.89.19.39.15-2.92-.16-4.34.06-5.68-.19-1.34-.1,2.53-.14,1.78-.07.63-.15-1.11-.13-2s.25-1.58.24-3.93c0,.24,0,.25,0,.48,0-.12,0-.24,0-.36V9.85a1.34,1.34,0,0,0,0-.2A6.94,6.94,0,0,0,43,8.88h0C43,8.45,42.9,8,42.82,7.53a3.17,3.17,0,0,1-.19-.46c-.06-.16-.11-.32-.16-.46s-.11-.27-.16-.37-.11-.17-.16-.19a9,9,0,0,1,.69,2.09,8.67,8.67,0,0,0-.65-1.82c-.16-.31-.33-.65-.54-1s-.45-.74-.75-1.15A1,1,0,0,1,41,4.3l.2.23.22.27.19.28a8.9,8.9,0,0,0-1-1.44c.06,0,.2.14.39.35s.19.23.3.38l.33.48A12.35,12.35,0,0,1,42.24,6c.19.39.33.77.47,1.09a3.76,3.76,0,0,0-.22-.64l-.07-.18-.09-.18a3.78,3.78,0,0,0-.17-.35L42,5.45l-.1-.18c0-.09,0-.09.1,0-.32-.39-.63-.89-1.06-1.43a4.23,4.23,0,0,0-.33-.41l-.19-.2-.2-.2L40,2.87l-.23-.19-.24-.18-.12-.09-.13-.08h.14c-.22-.15-.68-.44-1.09-.68l.4.18.39.2c-.57-.35-1.12-.7-1.69-1a6.88,6.88,0,0,0-1.8-.68,7.14,7.14,0,0,1,1.19.4c.18.08.2.11.18.12s-.1,0-.1,0,.07.06.32.19C36.47.77,36,.64,35.59.52L35.11.38l-.2-.06L34.72.26a4,4,0,0,0-.41-.11l-.55-.1A8.57,8.57,0,0,0,32,0h1l.1,0s0,0-.23,0H32l-.29,0-.53,0-.41.05a4.77,4.77,0,0,0-1,.28c-.09,0,0,0,.13,0s.71-.13.21,0a3.3,3.3,0,0,0-.54.13,3.71,3.71,0,0,0-.46.19c-.29.15-.61.33-1.07.6l-.05-.07-.41.23-.32.19L27.09,2l-.17.14a1.69,1.69,0,0,0-.28.28,1,1,0,0,1-.23.27l-.31.28-.54.52.16-.21L25.89,3l.17-.21.18-.2a10.16,10.16,0,0,0-.91.95c0-.09.07-.18.11-.27a15.27,15.27,0,0,0-1,1.34l-.19.3-.19.32c-.13.23-.27.48-.42.8.1-.13.11-.07,0,.16a3.63,3.63,0,0,1-.14.49l-.1.34c0,.13-.07.26-.11.41-.13.4-.12.29-.13.28s0,0-.05.15a2.35,2.35,0,0,0-.06.29c0,.14-.05.3-.07.52a3.37,3.37,0,0,1,.28-1.57c0-.08.07-.39.07-.48A6.39,6.39,0,0,0,23,8.07a6.58,6.58,0,0,0-.12,1.09h0c0-.12,0-.22,0-.29a2.44,2.44,0,0,1,0,.27l.06,0-.06,0v.08l0,0v.13l0,0h0l0,0v.08l.1,1.91c0,.38-.06.08-.09-.23,0,.5.05.84.06,1.57-.07-.18-.15-.14-.18-1.17l.08,2.33c0,.16-.09,1.2-.11.9-.05,1.29.14,3.18.08,4.89,0,.09,0,.27,0,.64s0,.5,0,.75h0v.11c0,.13,0,.26,0,.39h0v.2c0,.06,0,.12,0,.18s0,.25-.07.36a2.75,2.75,0,0,1-.27.69,2.18,2.18,0,0,1-1.18,1,3.3,3.3,0,0,1-.94,0H20c-.06,0-.07,0-.06,0l.1,0,.17,0c.1,0,.19,0,.1.07l-.28,0h-.27l-.17,0-.19,0a2,2,0,0,1-.7-.26c-.11-.07-.13-.1-.13-.12s.11,0-.08-.19a1.81,1.81,0,0,1-.34-.27,1.9,1.9,0,0,1-.31-.44,2.32,2.32,0,0,1-.22-.61,2.55,2.55,0,0,1-.06-.73v-.64l0-.6c0,.22,0,.41,0,.61v.64a.67.67,0,0,0,0,.2,1.23,1.23,0,0,1,0-.2v-.06l.06-1,0,.51,0,.23v.3a3,3,0,0,0,0,.45,1.82,1.82,0,0,0,.06.25c0,.08,0,0,0-.37,0,0,0-.05-.05-.11a1,1,0,0,1,0-.22v-.61c0-.2,0-.43,0-.66V18.71a6.17,6.17,0,0,0-.14-1.87l.06-.82c0,.24,0,.27,0,.5.12-1.58-.18-1.17-.15-3.21,0-.72.06-1.21.09-.73L17.53,11c0-.4,0-.38,0-.08a15.92,15.92,0,0,0-.18-2.28v0l-.08-.33c0-.13-.08-.27-.12-.41a4.21,4.21,0,0,0-.12-.42L17,7.32,17,7.16c-.14-.62.11.3.1.14A9.61,9.61,0,0,0,16.55,6c-.05-.14-.05-.18,0-.14a1.33,1.33,0,0,1,.17.29,6.66,6.66,0,0,1,.44,1.27,2.74,2.74,0,0,0,0-.43,1.16,1.16,0,0,0,0-.18.75.75,0,0,0,0-.16,2.64,2.64,0,0,0-.1-.3c-.05-.1-.09-.2-.15-.31s-.24-.47-.44-.83a9.9,9.9,0,0,0-1-1.37,7.82,7.82,0,0,1,.86,1.06,4.62,4.62,0,0,0-.85-1.25l-.15-.16-.17-.16-.18-.16L14.7,3l-.21-.16-.22-.16-.48-.31c.08.06.29.19.52.37a7.59,7.59,0,0,1,.66.6,1.56,1.56,0,0,1,.31.41s0,0-.07,0l-.12-.09-.19-.16-.13-.11-.14-.12-.16-.13L14.29,3a4.63,4.63,0,0,0-.95-.49,3.76,3.76,0,0,0-1.71-.63l.09-.1-.19,0-.16,0-.27,0h-1c-.6,0-.95-.05-1.2-.08l-.53-.1-.49,0c-.1,0-.14,0-.14,0a1.75,1.75,0,0,0,.3,0c.14,0,.28,0,.23,0a6.9,6.9,0,0,1-.82.12,11.32,11.32,0,0,0-2.13.42,13.62,13.62,0,0,0-2.23.88l-.42.15s0,0,.06-.05S3,3,2.84,3.07l-.42.25L2,3.58c-.21.11-.16,0-.13,0-.35.2-.35.24-.4.3L1.41,4a.07.07,0,0,1,0,0l-.09.06L1,4.24.8,4.36l-.12.07-.06,0,0,0h0A4.08,4.08,0,0,1,1,5.2L1,5.33l.05.1.11.23.24.52c.17.36.36.76.56,1.15l.3.57c.06.09.11.18.16.27l.18.27c.11.25.07.21,0,.12L2.5,8.41s0,0,0,0L3,9.34l0,0H3l0,0,.09-.06.19-.1L3.69,9l.72-.4L5,8.3c.22-.11.49-.26.89-.43a7.08,7.08,0,0,1,1.42-.26c-.26,0-.38,0-.39,0s.1-.07.27-.12a5,5,0,0,1,1.61-.14l-.16,0,.46.08-.3,0L9,7.41a2.06,2.06,0,0,1,.26,0h0a1.92,1.92,0,0,1,.8.5h0a4.06,4.06,0,0,0-.46-.24A2.66,2.66,0,0,0,9,7.41c-.49,0-.93,0-.84.12a2.88,2.88,0,0,1,.62,0c-.13,0-.2,0-.15,0s.25,0,.54.08a1.63,1.63,0,0,1,.31.27h.1a1.26,1.26,0,0,1,.53.72.77.77,0,0,1,0,.15v.11h0l-.31,0L9.53,9l-.34.07-.67.16-.68.18-.34.09-.36.11c-.48.14-1,.3-1.56.5a18.3,18.3,0,0,0-1.81.78c.62-.4.07-.21.06-.33.39-.12.92-.35,1.55-.58a13.46,13.46,0,0,1,2.11-.59c-.79.16-.63.07-.43,0a17.08,17.08,0,0,0-2.61.89c0-.1-.58.15-1.25.46.15,0,.11,0,0,.15s-.42.27-.72.5a4.73,4.73,0,0,0-.45.36c-.15.14-.3.27-.44.42A5.13,5.13,0,0,0,.91,13s0,0,.07-.25a4.25,4.25,0,0,1,.9-1l-.22.18c-.07.05-.13.12-.19.17s-.21.24-.31.35l-.22.35c-.06.12-.12.23-.17.35s-.19.46-.28.73-.18.56-.29.93c0-.17.07-.3.09-.4a1.76,1.76,0,0,0,.06-.25c0,.1-.06.21-.08.34l-.05.19a1.55,1.55,0,0,1,0,.21c0,.28-.08.59-.1.85s0,.48,0,.61,0,.17,0,.06,0-.23,0-.34a6.74,6.74,0,0,0,.27,2,5.83,5.83,0,0,0,1.07,2.05,5.1,5.1,0,0,0,1.49,1.25,2.66,2.66,0,0,0,.89.34s-.08,0-.18,0a1,1,0,0,1-.31,0,5.11,5.11,0,0,0,1,.24,4.8,4.8,0,0,0,1,.06A6,6,0,0,0,6,22H6a6.81,6.81,0,0,0,1.21-.11.5.5,0,0,1,.14.1s0,.1-.1.17a1.28,1.28,0,0,1-.3.1,4.15,4.15,0,0,1-.56.1l.44,0c.15,0,.33,0,.51-.07a5.23,5.23,0,0,0,1.35-.44,1,1,0,0,1-.29.07.74.74,0,0,1-.25,0c-.13,0-.15,0,.08-.13a6.51,6.51,0,0,0,1.14-.38l.2-.1.25-.13.34-.19.22-.13.12-.07.08-.05h0a.09.09,0,0,1-.06,0s-.05,0-.06,0,0-.07.07-.15a2.12,2.12,0,0,1,.2-.25A3.82,3.82,0,0,1,11,20a.53.53,0,0,0-.08.22.58.58,0,0,1-.11.24l.11-.13L11,20.3l0,0h.09l0,0,0,.05.06.13a.08.08,0,0,1,0,.07v.07l0,.17,0,.18a.59.59,0,0,0,0,.13c-.07-.31-.18.09-.19.53,0-.12,0,.35.12.9,0,.28.09.58.15.85l.09.36.07.27-.09-.45c0-.15,0-.3-.07-.45a7.76,7.76,0,0,0,.39,1.38c.07.17.14.33.21.47l.22.4c.15.25.31.5.51.81s.44.67.8,1.14l-.09-.07-.09-.06c-.06,0-.11-.05-.13,0s0,.09,0,.2a3.53,3.53,0,0,0,.37.53l.23.17.14.1.18.12.41.26.5.27.13.07A8.48,8.48,0,0,0,17.62,30h-.06l-.37-.08-.19,0-.09,0-.09,0-.38-.11-.18-.06-.18-.07-.36-.14-.33-.16-.32-.17-.55-.34c.35.3.39.35.48.43l.24.17.23.15.38.21c.2.14,0,.07-.25-.06l-.11-.05-.1-.07-.22-.13a2.78,2.78,0,0,1-.36-.24,4,4,0,0,0,.33.24l.34.23.36.19a2.58,2.58,0,0,0,.37.19l.37.17.19.08.19.07c.25.08.51.19.77.25,0,0,.11,0,.33,0l.18,0,.21,0,.44.06.23,0h.22l.38,0H20c.06,0,.09,0,.07,0l-.85-.05-.22,0-.21,0-.43-.06c-.14,0-.28-.06-.42-.09l-.43-.09-.42-.13a2.8,2.8,0,0,1-.41-.13s0,0,.06,0h.1l.15,0,.4.08.24,0,.28.05a20,20,0,0,0,2.95.25c.14,0,.18,0,.17.06a.34.34,0,0,1-.16.07,1.8,1.8,0,0,0-.39.12l.46,0c.22,0,.48,0,.74-.05l.2,0,.18,0,.34-.05.41-.06-.46.11c-.16,0-.32.07-.48.09a5.88,5.88,0,0,0,1.65-.36c.52-.19,1.05-.4,1.74-.7.24-.11.59-.28.89-.44a4,4,0,0,0,.39-.23.58.58,0,0,0,.16-.15,1.39,1.39,0,0,1-.5.18.51.51,0,0,1-.32,0L25.8,29a8.62,8.62,0,0,0,1.34-1.07l0,.08a2.5,2.5,0,0,0,.23-.23l0,0a7.93,7.93,0,0,0,1.09-1.36s0,0,0,0a.54.54,0,0,1-.05.16c0,.06-.06.14-.09.22s-.15.3-.18.39,0,.1.13,0a5.87,5.87,0,0,1,.33-.62c.16-.22.15-.16.18-.17s.11-.08.38-.61a7,7,0,0,1,.37-1c.07-.16.1-.27.08-.22s-.1.24-.31.65c.21-.54.31-.82.41-1.14l.08-.24c0-.09,0-.18.07-.29l0-.16,0-.19c0-.13.05-.28.07-.44-.1.27-.09-.36-.15-1.13v-.08h0V20.11c0-2.3.07-3.54.07-5.68,0-.2.07-1.23.12-.79,0-.31-.06-.59-.07-1.25.11-1.28,0,1.47.15.5C30,12.8,30,11.18,30,10.23a20.62,20.62,0,0,0,0,3.12c-.06,0-.11-.19-.16-.54v-3h0v0h0V9.76h0V9.62h0a3,3,0,0,1,1.78-2.9,2.92,2.92,0,0,1,.6-.15A4.21,4.21,0,0,1,34,6.63a2.79,2.79,0,0,1,.92.44,2.94,2.94,0,0,1,.71.78,3.78,3.78,0,0,1,.41,1,2.38,2.38,0,0,1,0,.26l.05.25a4.38,4.38,0,0,1,0,.5v0h0c0,.41,0,.79,0,1.13s0,.81.08.94v8.79s0,0,0,0l0,.34h0v.47h0v0h0v.05h0v.14c0,.07,0,.14,0,.21s-.08-.4-.07-.07a1.45,1.45,0,0,1,.07.26.62.62,0,0,1,0,.16,9,9,0,0,0,.47,1.87v.05l0,.07a8.94,8.94,0,0,0,.68,1.39.85.85,0,0,0,.1.18c.06.08.11.17.17.26l0,0,0,0a9.78,9.78,0,0,0,8.12,4.21,9.52,9.52,0,0,0,9.71-9.31v-6h3.18ZM10.11,8.26,10,8.13l.07.09,0,0,0,.05.05.1,0,.09a.86.86,0,0,1,.07.21,1.92,1.92,0,0,1,0,.22c0-.1-.06-.22-.1-.35a1,1,0,0,1,0-.1.42.42,0,0,0,0-.1l0-.06A.16.16,0,0,0,10.11,8.26Zm-2.61,6s0,0,0,0S7.47,14.29,7.5,14.3Zm-.5.92s.06,0,0,0S7,15.23,7,15.22Zm3.62-1.49,0,0,0,0h0v.08h0V14h0v1.72l-.08.09a.86.86,0,0,1-.2-.13c.08.15-.26-.05-.16.17,0,0,0-.06-.07-.08s0,.1,0,.11h0c-.09.11-.18.1-.33.16l.07.06a.13.13,0,0,1-.09,0c.06.13.08-.06.15.08-.15-.11-.19.15-.33,0,0,0,.07.07,0,.1l0,0,0,.07s-.09,0-.11-.08,0,0,0,0-.08.08-.1.07h.05a.48.48,0,0,1-.16.12.33.33,0,0,0-.16.15l0,0c-.07.11-.09,0-.18,0h0c0,.05,0,.08-.06.08s-.07-.08-.05-.14c-.08.1,0,.08-.07.24l0-.07c0,.07,0,.1-.07.13s-.05-.1,0-.18-.1,0-.13,0-.06.06-.09-.05c0,.2.11.1.08.14s0,.15-.07.13-.08-.24-.17-.23,0,0,0,0-.07.07-.11,0c0,.11,0,0-.07.14l.09,0s-.11.21-.18.11a.18.18,0,0,1,.05-.08c0-.05-.05,0-.07,0s.11,0,.16-.14-.1.11-.06-.05c0,.2-.09,0-.16.11v-.08s0,.05,0,0l0-.11c-.06.1-.07-.09-.12-.05s0,.11,0,.18c-.14.1,0-.22-.15-.22a.07.07,0,0,1,0,.1.16.16,0,0,1,0-.11c-.08,0,0,.09-.06.13,0-.11-.05,0-.1,0l0-.08c-.07-.09-.09.16-.15.07l.08-.1h0l0-.09-.07,0,0,0c0,.06-.08.14-.12.12s0-.06,0-.08.09-.09.07,0,0,0,0-.07,0,0-.06,0,0,0,0,0l-.14.05a.34.34,0,0,1,.06-.06l-.07,0a.36.36,0,0,1,.14-.12l-.09,0a.2.2,0,0,1,.06-.09s0,0-.07,0-.07,0-.06,0h0s0,0,0-.07,0,0-.06-.05l.11-.07s0,0-.09,0S7,16,7,15.93s.1,0,.13-.07l-.12,0s0-.05,0-.08,0,0,0,0l.07,0c.12,0,.08.05.18,0-.12,0-.13,0-.14,0s0-.07-.15-.06l.06,0s0,0,0,0-.19,0-.15-.1a.07.07,0,0,1,.09,0l-.06-.06s0,0,0,0v-.08H7l-.12-.08s0,0,.06,0l-.05-.06c.07,0,.11.05.1.08s.11,0,.09,0-.06-.06,0-.07v0c.15,0,.11,0,.2,0H7.14c-.06,0-.12,0-.14,0s0,0,0-.06.07,0,.08,0l.11,0s-.08-.06-.12-.1.11,0,.19,0-.15,0-.13-.11,0-.07,0-.17,0,.05.09.06l0-.08s0,0,0,0-.09-.07-.09-.13,0,0,.06,0,.11,0,.08-.06,0,.06.08.09a1.12,1.12,0,0,0,0-.24l.09,0c-.09,0-.11-.15-.12-.26h0v0l0,0,0-.05,0,0a.37.37,0,0,1,0,.11l-.06,0a.57.57,0,0,0,.1.19v0s0,0,0,0,0,0,0,0l.09.09,0,0h.12c0-.14-.06-.34,0-.46,0,.1.08.14.13.24-.09-.09,0,.09-.11.1s.05.05.06.07l0-.15c.05.08.05.05.1.07-.11-.16,0-.15,0-.22s0,.12,0,.13c.12.09,0-.23.08-.15s0,0,0,0a0,0,0,1,1,.09,0H8c.09,0,.25-.11.21-.26,0,0,.06.18.07.21,0-.12,0-.25,0-.38l.05,0c.06.13.13.29.1.36s.06,0,.09,0-.11-.17-.09-.19.06.06.17.16-.08-.23,0-.23.07.19.07.22v-.23s.06.17.09.22.07,0,.09,0l-.05,0c.1,0,0-.31.11-.33s0,.26.1.28a2.74,2.74,0,0,1,0-.35l.11,0c0,.15,0,.3,0,.39s0,.06.08,0a.08.08,0,0,1,0,.1h.13c0-.12.06-.14,0-.24a.86.86,0,0,0-.1.16c0-.12,0-.37.08-.37s0,.22,0,.26.07-.1.08-.07l0,.07c.06,0,0-.18.13-.08s.1.14.09.07a2.54,2.54,0,0,1-.14-.42l.08,0v0h0v0l.07,0c0,.11,0,.24,0,.32a.13.13,0,0,1,0-.09s0,.1.06.08.1,0,0-.11.05,0,.11,0a.34.34,0,0,1,0-.18.13.13,0,0,1,0-.06h.06c.1,0,.14,0,.22,0s0,.06,0,.12.05-.07.07-.08-.05,0-.07.17c0-.08.09-.12.14-.18s-.07,0-.11,0a.71.71,0,0,1,.08-.18l.3,0s0,0,.1,0h0v.09a.56.56,0,0,1,0,.12l.07,0Zm4.83-9.62a2.76,2.76,0,0,0-.23-.27l-.13-.16-.17-.16.27.22a3.83,3.83,0,0,1,.29.28,2.32,2.32,0,0,1,.26.3,1.24,1.24,0,0,1,.16.24A4.78,4.78,0,0,1,15.45,4.11Zm7.52,5h0L23,9h0Zm19.74-.57h0l.09.1Z"/><polygon class="cls-1" points="36.21 15.73 36.19 16.92 36.21 16.57 36.21 15.73"/><path class="cls-1" d="M58.87,30.51h0Z"/><path class="cls-1" d="M59,30.62l0,0S59,30.61,59,30.62Z"/><path class="cls-1" d="M60.56,30.7a.09.09,0,0,0,.06,0Z"/><path class="cls-1" d="M58,29.78l-.09,0S58,29.8,58,29.78Z"/><path class="cls-1" d="M58.73,26.16h0S58.73,26.16,58.73,26.16Z"/><path class="cls-1" d="M62.22,28.38h0S62.23,28.37,62.22,28.38Z"/><path class="cls-1" d="M57.89,28h0S57.87,28,57.89,28Z"/><polygon class="cls-1" points="61.84 30.13 61.84 30.12 61.84 30.12 61.84 30.13"/><path class="cls-1" d="M61.82,30.24c0-.1,0-.11,0-.12L61.66,30Z"/><path class="cls-1" d="M62.49,28.94s.17,0,.1-.06a2,2,0,0,1-.44-.05s0,0,0-.08h0a.19.19,0,0,0,0-.08c.11,0,.23.1.31.09l-.08-.05s.1,0,.09,0,0-.11-.1,0,0-.06,0-.12a.43.43,0,0,1-.22-.07v-.06h0c0-.1.07-.16.06-.26s.07-.06.12-.05-.06,0-.07-.05,0,.07.15,0c-.07,0-.11-.07-.16-.11s0,.1,0,.14a.43.43,0,0,1-.16,0c0-.1,0-.2-.05-.3a.31.31,0,0,0,0-.13.42.42,0,0,1,0-.22H62a3.72,3.72,0,0,0-.19-.34l0,0-.06,0h0s0,0,0,0l-.06,0,0-.06h0l0-.06h0a2,2,0,0,0-1.53-.68H60A1.55,1.55,0,0,1,60,26c0,.08-.07,0-.12,0s-.12-.07-.15.05c0,0,0-.06,0-.1s0,.1-.1.08v0c-.16.06-.25,0-.46,0l0,.07a.11.11,0,0,1-.09,0c0,.14.11-.05.13.11-.06-.07-.13,0-.2,0s-.12.06-.19,0,.07.07,0,.1l0,0,0,.07s-.1,0-.13-.07,0,0,0,0-.12.12-.15.12l.08,0-.1.11-.11.1a.45.45,0,0,0-.14.26l0,0c0,.14-.1.05-.15.19h0s0,.09,0,.12-.11,0-.14-.06c0,.17,0,.1.12.24H58.1c0,.06.07.07.06.14s-.11,0-.16-.09-.08.11-.07.16,0,.09-.09.09c.16.12.14-.09.17,0s.12.1.08.13-.25,0-.27.13v0c-.06,0,0,.1,0,.14.11,0,0,.07.13.1l0-.11c0,.07.19.14.09.23L57.89,28s0,.06,0,.08,0-.13-.12-.21.09.14-.07.09c.1,0,.09.06.07.09s0,.07,0,.12h-.08s0,0,0,.06l-.11,0c.09.07-.1.13,0,.19,0-.13.1,0,.17-.08.12.15-.21.1-.18.27,0,0,.06-.08.09,0a.16.16,0,0,1-.09.11c0,.13.09,0,.15,0-.1.06,0,.06.1.1l-.09,0c0,.14.19,0,.14.13l-.13,0,0,.05h-.11c.1.06.08.08.07.16s.16,0,.18,0-.09,0-.05.08-.13,0-.06-.06h-.09c0,.06,0,.12,0,.15s0,0,0,0l.16.07a.06.06,0,0,1-.08,0s.06,0,.08.06-.13.05-.19,0l.13.09s0,.09-.08.09.21.09.2.2a0,0,0,0,1,.06,0l0,.13a.15.15,0,0,0,.12.09l-.06.13c.08,0,.07-.17.2-.1s-.06.1-.07.15.24-.05.23.09,0,0-.07-.05v.1c-.14,0-.16,0-.18.08.09-.09.15,0,.2,0s.12.08.2,0v.07h0c0,.15.16-.11.23,0s0,.08,0,.09H59s0,.06,0,0l.13,0h0l.13-.08s0,0,0,0l.08,0a.08.08,0,0,1-.11.08c0,.12,0,.12,0,.1s.08,0,.12.05h-.07c0,.15.06.12.11.23,0-.05-.08-.27,0-.3s0,.05.09,0,0,.07.07.08l0,.12c.07,0,.07-.08.12-.13s0,.12,0,.2,0-.15.08-.16.14,0,.24,0,0,.07,0,.11l.06-.1a0,0,0,0,1,0,.05s0-.12.08-.15,0,0,.08,0,.09.09.13,0,0,.07,0,.12a.47.47,0,0,0,.16-.22l.09.07c-.07-.08,0-.2,0-.29h0v0h0a.24.24,0,0,1,0,.12l0-.07a.87.87,0,0,0,0,.23.05.05,0,0,1,0,0v.05s0,0,0-.05l0,.13v-.06l.15,0a2.33,2.33,0,0,0,.07-.25.41.41,0,0,1,.09-.21.87.87,0,0,0,.1.25c-.08-.1-.08.09-.17.09s.06.06,0,.08a1.19,1.19,0,0,0,.09-.15c0,.08.06.05.11.07-.1-.16,0-.16.06-.23s0,.11,0,.13.07,0,.06-.08,0-.12,0-.09,0,0,0,0,.11-.08.12,0h0l.09-.05a.3.3,0,0,0,.08-.08.17.17,0,0,0,0-.2.83.83,0,0,1,.13.18,2.17,2.17,0,0,0-.15-.35s0,0,0,0,.24.2.23.28.08,0,.08-.08-.17-.1-.16-.13.08,0,.24,0c0,0-.19-.16-.16-.18s.17.13.18.15a2.12,2.12,0,0,0-.11-.21c0,.05.14.11.2.13s.06-.08.06-.11h-.06c.09-.09-.19-.26-.13-.34s.22.16.27.12L62,29.31l0,0,0-.11s0,0,0,0a2.06,2.06,0,0,1,.22.25c.06,0,.07,0,.09,0a.06.06,0,0,1,.06.09l.1-.14c-.06,0-.07-.06-.09-.1a.11.11,0,0,0-.08-.09,1.66,1.66,0,0,1,.06.21.47.47,0,0,1-.18-.14c0-.06-.08-.13-.06-.17s.21.09.25.1-.05-.13,0-.13l0,.07s0-.06,0-.1S62.42,29,62.49,28.94ZM59.26,30.7c.06-.09.06,0,.08,0S59.26,30.75,59.26,30.7Zm1.42-.16a0,0,0,0,1,.06,0S60.71,30.57,60.68,30.54Z"/><path class="cls-1" d="M60.61,30.7s0,0,0,0S60.6,30.69,60.61,30.7Z"/><path class="cls-1" d="M58,29.78Z"/><path class="cls-1" d="M62.54,28.72s0,0,0,0S62.53,28.75,62.54,28.72Z"/><polygon class="cls-1" points="61.95 27.18 61.94 27.21 61.95 27.24 61.95 27.18"/><path class="cls-1" d="M62.3,27.69a.09.09,0,0,1-.06,0l.11,0Z"/><path class="cls-1" d="M62.45,27.86s-.07-.06-.08,0S62.47,27.94,62.45,27.86Z"/><path class="cls-1" d="M62.32,29.61s-.07,0-.09,0,0,.08.1.12S62.24,29.64,62.32,29.61Z"/><path class="cls-1" d="M62.23,29.6s0,0,0,0Z"/><path class="cls-1" d="M59.39,30.9l0,.08v0A0,0,0,0,0,59.39,30.9Z"/><polygon class="cls-1" points="58.76 30.59 58.79 30.48 58.74 30.58 58.76 30.59"/><path class="cls-1" d="M58.16,30.26s.05,0,.07,0S58.25,30.16,58.16,30.26Z"/></g></g></svg>