<svg xmlns="http://www.w3.org/2000/svg" viewBox="0 0 183.39 31.46"><defs><style>.cls-1{fill:#fff;}</style></defs><title>Asset 1</title><g id="Layer_2" data-name="Layer 2"><g id="Layer_1-2" data-name="Layer 1"><path class="cls-1" d="M3.92,18.33a1.29,1.29,0,0,1-1,1.16,3.68,3.68,0,0,1-1,.11V17.09a5.89,5.89,0,0,1,.9,0A1.21,1.21,0,0,1,3.92,18.33Zm1.63-.06A2.19,2.19,0,0,0,3.74,16,15.6,15.6,0,0,0,0,15.77v8H1.89V21a6.94,6.94,0,0,0,1.88-.34A2.33,2.33,0,0,0,5.55,18.27Zm6,1.48c0,2-.78,2.74-1.66,2.74s-1.64-.7-1.64-2.74S9.05,17,9.92,17,11.58,17.71,11.58,19.75Zm2,0c0-2.52-1.57-4.12-3.63-4.12S6.3,17.23,6.3,19.75s1.54,4.12,3.62,4.12S13.55,22.28,13.55,19.75Zm3.16-.23V17.09h.37a3.8,3.8,0,0,1,.77,0,1.17,1.17,0,0,1,1.09,1.12,1.33,1.33,0,0,1-1.26,1.22,3.29,3.29,0,0,1-.6.05Zm.37,1.25a3.64,3.64,0,0,0,.45-.05l1.43,3h1.93L19,20.4a2.09,2.09,0,0,0,1.54-2.11,2.23,2.23,0,0,0-1.94-2.35,7.19,7.19,0,0,0-1.56-.17H14.82v8h1.89V20.79Zm8.43-3.46v6.42H23.63V17.31H21.52V15.77h6.11v1.54Zm6.79,6.56c-1.94,0-3.42-.87-3.42-3.26V15.77h1.88v4.88c0,1.17.38,1.89,1.54,1.89s1.54-.72,1.54-1.89V15.77h1.87v4.84C35.71,23,34.26,23.87,32.3,23.87Zm16.59-3.23H47.11l.82-3h0Zm3,3.09-3-8H47l-2.8,8h2l.44-1.62h2.6l.5,1.62Zm1,0v-8h1.89v6.56l1.52-.14h1.54v1.54Zm-11.78.14c-2.42,0-4.27-1.31-4.27-4a4.16,4.16,0,0,1,4.45-4.23,8.24,8.24,0,0,1,2,.24v1.38A11.65,11.65,0,0,0,41.59,17a2.49,2.49,0,0,0-2.73,2.76c0,2,1.15,2.63,2.3,2.63a3.67,3.67,0,0,0,.38,0V20.59l-1.24-.17V19.26h3.1v4.28A7.79,7.79,0,0,1,41.14,23.87Zm46.34-1.41c-.6-.12-1,.42-1.59.2a3,3,0,0,0-1.78,1.84c.16.22-.34.38-.08.63,0,0-.08.08-.13.06a1.65,1.65,0,0,0,.45,1.6,3.52,3.52,0,0,0,2.8,1.56,2.27,2.27,0,0,0,1.49-1c0-.16-.06-.36.14-.44a1.61,1.61,0,0,0-.14-1.4c-.19-.13,0-.49-.36-.46s-.15.41-.46.43a1.25,1.25,0,0,0,.16.77,2.13,2.13,0,0,1-.72.8c-.61.19-.85-.43-1.45-.25-.38-.51-1.11-.77-1-1.55-.26-.69.52-.57.55-1.12.46-.74,1.65-.67,2.62-.61.49.2.95.59,1.37.81A3.62,3.62,0,0,1,90,27.25c-.12.35.22.68-.09.94,0,.61-.64,1-1,1.36-.17-.08-.18.12-.27.19-.34,0-.59.37-1,.34-.17.29-.6.19-.89.29-.08-.1-.22,0-.32.06-.48-.15-1.26.09-1.45-.44-.84-.17-1.56-1.12-2.09-1.85a8.21,8.21,0,0,0-2-1.47c-.61-.36-1.48-.17-2.22-.27-.07.09-.19.08-.25.19-.23.17-.63.17-.72.42-.46.28-1,.71-1.49,1-.17.29,0,.48-.1.82.27.05.36.46.69.35.89.27.59-.83,1.31-1-.06-.32.31-.1.39-.36a2.37,2.37,0,0,0,1-.41c.41-.24.68.22,1.07.23.26.3.58.32.8.6,1.54,1.43,3,3.42,5.28,3.22.18-.15.5.09.64-.17a1.37,1.37,0,0,0,1.09-.21c.53.23.77-.31,1.16-.46.62-1.21,2-1.8,1.7-3.37.48-1.13-.12-2.17-.66-3.07-.47-.29-.42-.87-1-1.11S88.2,22.64,87.48,22.46ZM70.76,25.82c-.43.34-1.17.06-1.45.63-.42-.11-.53.43-.82.44-.15.2-.44.33-.45.58a2.7,2.7,0,0,0-.82,1.27c-.27-.1,0,.21-.13.25s-.18-.06-.25-.13c-.76-.9-.8-2.39-2.09-2.79a3.63,3.63,0,0,0-3.3,1.21c0,.13,0,.3-.19.32a3.62,3.62,0,0,0,.19,2.85,2,2,0,0,0,1.08.69c.8-.07,1.55.71,2.28.07.4-.46,1.12-.82,1-1.59-.47-.41-.44-1.31-1.14-1.52s-1.68-.17-2.09.57c.1.21-.23.43.06.51a.2.2,0,0,0,.32-.07c.48.06.75-.56,1.26-.25A1.22,1.22,0,0,1,64.55,30c-.21.31-.59.2-.89.32-.1-.47-.68-.29-.95-.64-.51-.19-.58-.8-.56-1.33a2.23,2.23,0,0,1,2-1.52c0,.49.41.16.7.32s.19.41.38.57a12.28,12.28,0,0,0,.89,1.9c.21.05.5-.1.63.13a8.55,8.55,0,0,0,1.52.32c.6,0,.79-.52,1.27-.77.4,0,.67-.29,1.08-.25a11.49,11.49,0,0,0,1.65,1.46.69.69,0,0,0,.51-.12c.12-.55-.43-.86-.64-1.21A2.1,2.1,0,0,0,70,28c-.78.19-1.15,1.39-2.16,1,0-.29.33-.28.44-.51.92-.26,1.32-1.62,2.41-1.59.59,0,1.27-.07,1.65.32s.79.59.89,1c.26.12.25.32.51.51a6.31,6.31,0,0,0,1,1.2v.13c.51.24.8.6,1.39.63a4.39,4.39,0,0,0,2.22-.07c1-.31,1.49-1.17,2.16-2-.22,0-.34-.25-.57-.25-.68.41-1.07,1.11-1.84,1.33a2.89,2.89,0,0,1-2.66-.45C74.1,27.91,73.17,25.48,70.76,25.82ZM76.07.27C74.53-.51,73,.56,72,1.46c-.56.48-1.27.75-1.5,1.47a3,3,0,0,0,.57,1.27,2.78,2.78,0,0,0,0,1.15c.09.36.06.74.24.91A7,7,0,0,1,72,7a1.5,1.5,0,0,0,1.07.4,4,4,0,0,0,3.48-.69c.24-.32.79-.56,1-1,.35-.26.34-.68.5-1,.09-.1.07-.34.25-.45.28-.81-.2-1.48-.31-2.21A5.21,5.21,0,0,0,76.07.27Zm5.84.91a4.62,4.62,0,0,0-.37,1.38c-.1.18-.25.33-.19.57-.54.69-.43,1.76-1.07,2.29a.62.62,0,0,0-.13.44c-.61.92-1.2,2.28-2.41,2.54-1.06.81-2.73,1-3,2.47-.21.44,0,.59,0,1,.1.22-.07.3.09.62.25,1.32-.85,2.24-1.26,3.36,0,0-.18.13-.13.25a4.74,4.74,0,0,0-.32,2.22c.47.85.21,2,1,2.73a1.46,1.46,0,0,1-.25,1.52c-.48.1-.11.67-.31.95,0,.37.51,1.13.69.89.13-.05.2,0,.27,0,.37.2.39-.08.8,0a12,12,0,0,1,2.86-.32,7.6,7.6,0,0,0,3.94.19c.15-.19.6-.1.56-.43-.25-.24-1-.26-1.19-.56.11-.26.71-.31.93-.61-.09-.24-.74-.37-.83-.75.25-.41.78-.59.77-.72a.28.28,0,0,0-.27-.18c-.43-.1-1.52-.67-1.56-1.5.14-.35.36-.49.5-.83,0-.74.52-1.52.07-2.22.09-.69-.48-1.35,0-2,.25-.1.41-.47.7-.5.44-.67,1.09-.68,1.45-1.27a8.35,8.35,0,0,0,1.27-1.39c.83-.73.91-1.75,1.72-2.48,0-.33.36-.34.31-.7A2,2,0,0,0,87.12,7c.16-.28.46-.52.45-.88a14.75,14.75,0,0,0,.88-1.84c.14-.58.59-1.34.16-1.91A17.17,17.17,0,0,0,86.48,3c-.17-.17-.43-.41-.43-.7-.35-.24-.48-.56-.89-.63s-.75.43-1,.69c-.3.06-.46.46-.82.38-.36-.46-.71-.92-1.09-1.32C82.16,1.22,82.05,1.14,81.91,1.18ZM64.52,4.9c-.31.16-.86-.09-1.33-.1-.27.09-.17.8-.15,1.07-.25.45-1-.36-1.45,0A4.37,4.37,0,0,0,62,7c.1.71.4.77.48,1.43.76.6,1,1.7,1.52,2.46.53.4.82,1.13,1.52,1.4A1.86,1.86,0,0,1,66.24,14c-.06.23-.23.28-.37.65s-.3.26-.26.53-.44.94-.38,1.53c-.29.25,0,.54-.19.82a2.23,2.23,0,0,1-.06.76c.17.15,0,.3.12.44.21.31-.1.57-.19.83s-.34.12-.44.37a4,4,0,0,0-2.36.7c.07.37.74.45.88.9s-.54.56-.79.73c-.09.36.68.29.6.64a1.35,1.35,0,0,1-.44.3c-.19.12-.54.45-.27.61a1.91,1.91,0,0,0,.57,0c.87.1,1.58,0,2.38.08.32,0,.83-.09,1.14.13.18.38.68,0,.89.31a4.94,4.94,0,0,0,2-.06c.35,0,.61-.25,1-.25.76-.64.18-1.79.44-2.61A4.39,4.39,0,0,0,72,18.57a1.6,1.6,0,0,0,.18-.95c.08-1.39-.7-2.75-.06-4.06,0-1.2,1-2,.83-3.23a4.1,4.1,0,0,0-.7-1c-.52.06-.57-.62-1.14-.45-.46-.46-1.26-.25-1.65-.76A2.64,2.64,0,0,1,67.64,7C66.46,6.2,66,4.5,65,3.48,64.48,3.48,64.89,4.6,64.52,4.9ZM5.8,10.45h.77V5.2h1.8V4.55H4V5.2H5.8Zm3.35-5.9V8c0,1.83.9,2.51,2.11,2.51S13.49,9.81,13.49,8V4.55h-.77v3.5c0,1.3-.57,1.87-1.43,1.87S9.91,9.36,9.91,8.05V4.55Zm5.79,5.9h.76V7.89h.72c.69,0,1,.34,1.19,1.15A6.93,6.93,0,0,0,18,10.45h.79a9.72,9.72,0,0,1-.45-1.62,1.52,1.52,0,0,0-.86-1.19v0a1.55,1.55,0,0,0,1.11-1.49A1.47,1.47,0,0,0,18.11,5a2.43,2.43,0,0,0-1.71-.49,7.76,7.76,0,0,0-1.46.13Zm.76-5.28a3.44,3.44,0,0,1,.75-.07c.81,0,1.36.34,1.36,1.1s-.52,1.12-1.33,1.12H15.7Zm4.06-.62v5.9h.77V4.55Zm1.93,5.6a3.06,3.06,0,0,0,1.5.39c1.4,0,2.06-.8,2.06-1.7s-.5-1.34-1.5-1.73c-.81-.32-1.17-.59-1.17-1.13s.31-.88,1.11-.88a2.09,2.09,0,0,1,1.11.28L25,4.75a2.74,2.74,0,0,0-1.29-.28,1.7,1.7,0,0,0-1.91,1.6c0,.82.6,1.33,1.56,1.66.8.3,1.11.62,1.11,1.17s-.45,1-1.23,1a2.66,2.66,0,0,1-1.36-.38Zm9.84.3h.76l-.37-5.9H31L29.9,7.4c-.26.75-.47,1.4-.63,2h0c-.16-.61-.35-1.27-.59-2l-1-2.85h-1l-.41,5.9H27l.16-2.53c.05-.88.1-1.87.12-2.61h0c.17.7.4,1.47.68,2.3l1,2.8h.58l1-2.86c.29-.8.53-1.55.74-2.24h0c0,.73.05,1.74.09,2.55Zm4.36.09c1.5,0,2.73-1.08,2.73-3.1a2.68,2.68,0,0,0-2.66-3,2.79,2.79,0,0,0-2.73,3.09,2.7,2.7,0,0,0,2.65,3Zm0-.62C34.72,9.92,34,8.78,34,7.54s.63-2.46,1.9-2.46,1.88,1.22,1.88,2.39c0,1.34-.69,2.45-1.89,2.45Zm5.79.51a11.07,11.07,0,0,0,1.39.07,3.65,3.65,0,0,0,2.61-.85,3.12,3.12,0,0,0,.85-2.29,2.69,2.69,0,0,0-.84-2.12,3.35,3.35,0,0,0-2.38-.73,11.09,11.09,0,0,0-1.63.12Zm.77-5.24a4.58,4.58,0,0,1,.89-.08,2.11,2.11,0,0,1,2.39,2.28,2.26,2.26,0,0,1-2.51,2.5,4.3,4.3,0,0,1-.77,0Zm8.23,1.86H48.43V5.19h2.42V4.55H47.66v5.9H51V9.81H48.43V7.68h2.28Zm61.55,13.62a17.59,17.59,0,0,0,.22,3.13h-2.17l-.18-1.65H110a4.84,4.84,0,0,1-4,2,3.72,3.72,0,0,1-4-3.76c0-3.15,2.81-4.88,7.86-4.86v-.27a2.69,2.69,0,0,0-3-3,6.5,6.5,0,0,0-3.4,1L103,11.6a8,8,0,0,1,4.29-1.17c4,0,5,2.73,5,5.35ZM110,17.13c-2.59-.05-5.53.41-5.53,2.94a2.1,2.1,0,0,0,2.24,2.27,3.26,3.26,0,0,0,3.16-2.18,2.58,2.58,0,0,0,.13-.76Zm6.13-12.5h2.38V23.8h-2.38Zm17.53,17.28c0,3-.59,4.84-1.86,6A6.94,6.94,0,0,1,127,29.45a8.44,8.44,0,0,1-4.34-1.08l.59-1.81a7.34,7.34,0,0,0,3.83,1c2.43,0,4.22-1.27,4.22-4.56V21.56h-.06a4.66,4.66,0,0,1-4.16,2.19c-3.24,0-5.56-2.76-5.56-6.38,0-4.42,2.89-6.94,5.89-6.94a4.35,4.35,0,0,1,4.08,2.27h0l.11-2h2.08c-.06.95-.11,2-.11,3.59Zm-2.35-6a3.6,3.6,0,0,0-.13-1.08,3.43,3.43,0,0,0-3.33-2.51c-2.27,0-3.89,1.91-3.89,4.94,0,2.56,1.3,4.7,3.87,4.7a3.48,3.48,0,0,0,3.29-2.43,4,4,0,0,0,.19-1.27Zm15.47,4.78A18.58,18.58,0,0,0,147,23.8H144.8l-.19-1.65h-.08a4.86,4.86,0,0,1-4,2,3.72,3.72,0,0,1-4-3.76c0-3.15,2.8-4.88,7.85-4.86v-.27a2.69,2.69,0,0,0-3-3,6.56,6.56,0,0,0-3.4,1l-.54-1.56a8.06,8.06,0,0,1,4.3-1.17c4,0,5,2.73,5,5.35Zm-2.29-3.54c-2.59-.05-5.54.41-5.54,2.94a2.11,2.11,0,0,0,2.24,2.27,3.24,3.24,0,0,0,3.16-2.18,2.6,2.6,0,0,0,.14-.76Zm6.13-2.32c0-1.54,0-2.86-.11-4.08h2.08l.08,2.57h.11a3.91,3.91,0,0,1,3.62-2.87,2.26,2.26,0,0,1,.67.09v2.24a3.22,3.22,0,0,0-.81-.08A3.32,3.32,0,0,0,153,15.73a6,6,0,0,0-.11,1.1v7h-2.35ZM161,10.73l2.57,7.35a33.31,33.31,0,0,1,1.05,3.34h.08c.3-1.08.68-2.16,1.11-3.34l2.54-7.35h2.48L165.7,23.8h-2.27l-5-13.07Zm13.13,7c.05,3.21,2.1,4.54,4.48,4.54a8.56,8.56,0,0,0,3.62-.68l.4,1.7a10.38,10.38,0,0,1-4.34.84c-4,0-6.43-2.68-6.43-6.62s2.32-7,6.13-7c4.27,0,5.4,3.76,5.4,6.16a8.39,8.39,0,0,1-.08,1.11Zm7-1.7c0-1.52-.62-3.86-3.29-3.86-2.4,0-3.46,2.21-3.65,3.86Z"/></g></g></svg>